<?xml version="1.0" encoding="UTF-8"?>
<svg id="Layer_2" data-name="Layer 2" xmlns="http://www.w3.org/2000/svg" viewBox="0 0 17.54 21.62">
  <defs>
    <style>
      .cls-1 {
        fill: #df1200;
      }

      .cls-2 {
        fill: #020202;
      }
    </style>
  </defs>
  <g id="Layer_1-2" data-name="Layer 1">
    <path class="cls-2" d="m7.04,19.27c-.31-.39-.49-.88-.49-1.4h-1.5c0,.41.07.8.19,1.17.19.57.51,1.08.91,1.48l1.06-1.06c-.06-.06-.12-.12-.17-.19Zm.17.19l-1.06,1.06c.67.67,1.62,1.1,2.65,1.1v-1.5c-.61,0-1.18-.25-1.59-.66Zm3.84-1.59c0,.53-.18,1.01-.49,1.4-.41.52-1.05.85-1.76.85v1.5c1.65,0,3.07-1.09,3.56-2.58.12-.37.19-.76.19-1.17h-1.5Zm.14-16.45c-.46-.85-1.36-1.42-2.39-1.42v1.5c.34,0,.66.14.88.37.12.12.21.26.27.41l.7-.27.7-.27c-.04-.11-.09-.22-.16-.32Zm-4.78,0c-.07.1-.12.21-.16.32l.7.27.7.27c.18-.46.63-.78,1.15-.78V0c-1.03,0-1.93.57-2.39,1.42Zm2.39-.42c-.36,0-.71.03-1.06.07-.16.03-.32.05-.48.08-.17.05-.35.09-.52.14l.21.72.21.72s.05-.01.08-.02c.1-.03.21-.06.32-.08.64-.14,1.32-.16,2.04-.08h0s.08-.68.08-.68l.1-.8c-.33-.05-.66-.07-.98-.07Zm1.54.16c-.18-.04-.37-.07-.56-.09l-.1.8-.08.67h0c.25.05.51.1.76.17h.01s.05.02.07.02l.21-.72.21-.72c-.17-.05-.34-.1-.52-.13ZM2.23,12.67l.64.39h0s-.64-.39-.64-.39Zm12.48.37v.02s.65-.39.65-.39l-.65.37Zm-12.48-.37l.64.39h0s-.64-.39-.64-.39ZM11.19,1.42c-.1-.05-.21-.09-.33-.13-.17-.05-.34-.1-.52-.13-.49-.13-1.01-.19-1.54-.19v1.5c-.43,0-.84.05-1.24.16.64-.14,1.32-.16,2.04-.08.25.04.51.09.76.16h.01s.05.02.07.02c.3.1.58.22.85.38h.01c.24-.45.58-.84.99-1.15-.34-.22-.71-.4-1.1-.54Zm3.52,11.62v.02s.65-.39.65-.39l-.65.37Zm-12.48-.37l.64.39h0s-.64-.39-.64-.39Zm12.48.37v.02s.65-.39.65-.39l-.65.37Zm-.26-4.61c-.13,0-.27-.01-.4-.02v2.2h1.5v-2.35c-.35.11-.72.17-1.1.17Zm1.55,3.85c-.11-.19-.22-.48-.31-.8-.09-.34-.14-.66-.14-.87h-1.5c0,.4.08.85.19,1.26.12.41.28.84.47,1.17l.65-.37.65-.37s-.01-.01-.01-.02Zm.01.02s-.01-.01-.01-.02l-.64.39-.64.39,1.15,1.91,1.28-.78-1.14-1.89Zm1.14,1.89l-1.28.78c.41.69.08,1.58-.68,1.83l.48,1.42c1.66-.55,2.39-2.52,1.48-4.03Zm-2.44-1.15v.02s.65-.39.65-.39l-.65.37ZM9.6,2.54l.08-.67c-.22-.23-.54-.37-.88-.37v.97c-.43,0-.84.05-1.24.16.64-.14,1.32-.16,2.04-.08.25.04.51.09.76.16-.25-.08-.5-.14-.76-.17ZM2.23,12.67l.64.39h0s-.64-.39-.64-.39Zm12.96,4.13c-4.15,1.39-8.64,1.39-12.79,0l-.48,1.42c1.09.37,2.2.64,3.32.82.6.11,1.2.18,1.8.23,1.17.09,2.34.09,3.52,0,.6-.05,1.2-.12,1.8-.23,1.12-.18,2.22-.45,3.31-.82l-.48-1.42Zm-13.62-.74c-.11-.29-.1-.68.15-1.09l-1.28-.78c-.46.77-.56,1.63-.28,2.39.29.77.92,1.36,1.76,1.64l.48-1.42c-.46-.16-.72-.44-.83-.74Zm.02-3.78h0s-1.15,1.91-1.15,1.91l1.28.78,1.15-1.91-1.28-.78Zm.46-1.67c0,.21-.05.53-.14.86-.09.33-.21.62-.32.81h0s1.28.77,1.28.77c.2-.33.37-.76.48-1.18.12-.41.2-.86.2-1.26h-1.5Zm0-2.89v2.89h1.5v-2.89h-1.5ZM7.74,1.07c-.16.03-.32.05-.48.08-.17.05-.35.09-.52.14-.11.04-.22.08-.33.13-2.54.95-4.36,3.42-4.36,6.3h1.5c0-2.36,1.55-4.35,3.69-5.01.1-.03.21-.06.32-.08.4-.11.81-.16,1.24-.16V.97c-.36,0-.72.03-1.06.1Zm-.79.94l-.7-.27c-.1.26-.05.56.15.78.19.21.48.29.76.21l-.21-.72Zm4.4-.27l-.7.27-.21.72c.28.08.57,0,.76-.21.2-.22.25-.52.15-.78Zm3.36,11.3v.02s.65-.39.65-.39l-.65.37Zm-12.48-.37l.64.39h0s-.64-.39-.64-.39Z"/>
    <path class="cls-1" d="m17.05,4.84c0,1.05-.63,1.95-1.53,2.36-.33.15-.69.23-1.07.23-.14,0-.28-.01-.42-.03-1.24-.2-2.18-1.27-2.18-2.56,0-.43.1-.83.28-1.18.23-.45.59-.83,1.03-1.08.38-.22.82-.34,1.29-.34,1.43,0,2.6,1.16,2.6,2.6Z"/>
  </g>
</svg>